<?xml version="1.0" encoding="UTF-8" standalone="no"?>
<svg
   viewBox="0 0 750 500"
   version="1.1"
   id="svg85"
   sodipodi:docname="By my car-cuate.svg"
   inkscape:version="1.3.2 (091e20e, 2023-11-25, custom)"
   xmlns:inkscape="http://www.inkscape.org/namespaces/inkscape"
   xmlns:sodipodi="http://sodipodi.sourceforge.net/DTD/sodipodi-0.dtd"
   xmlns="http://www.w3.org/2000/svg"
   xmlns:svg="http://www.w3.org/2000/svg">
  <defs
     id="defs85" />
  <sodipodi:namedview
     id="namedview85"
     pagecolor="#ffffff"
     bordercolor="#000000"
     borderopacity="0.25"
     inkscape:showpageshadow="2"
     inkscape:pageopacity="0.0"
     inkscape:pagecheckerboard="0"
     inkscape:deskcolor="#d1d1d1"
     showgrid="false"
     inkscape:zoom="1.4453333"
     inkscape:cx="375"
     inkscape:cy="250.11531"
     inkscape:window-width="1920"
     inkscape:window-height="1051"
     inkscape:window-x="-9"
     inkscape:window-y="-9"
     inkscape:window-maximized="1"
     inkscape:current-layer="svg85" />
  <g
     id="freepik--Car--inject-18"
     transform="matrix(-1,0,0,1,750.00296,0)">
    <path
       d="m 232.88,256.85 0.69,-2.38 c 0,0 -8.81,-9.45 -11.34,-10.61 -2.53,-1.16 -18,1.75 -18.87,3.12 -0.87,1.37 -0.51,7.33 -0.3,8.38 0.21,1.05 14,3.41 16.32,3.51 2.32,0.1 13.5,-2.02 13.5,-2.02 z"
       style="fill:#ff81ae"
       id="path1" />
    <path
       d="m 233.57,254.47 -0.69,2.38 c 0,0 5.86,4.43 6.08,4.69 0.22,0.26 -0.14,1.52 -0.14,1.52 h 5.94 v -8.59 a 13.94,13.94 0 0 1 -2.78,1.19 c -0.85,0.15 -8.41,-1.19 -8.41,-1.19 z"
       style="fill:#ff81ae"
       id="path2" />
    <g
       style="opacity:0.1"
       id="g4">
      <path
         d="m 232.88,256.85 0.69,-2.38 c 0,0 -8.81,-9.45 -11.34,-10.61 -2.53,-1.16 -18,1.75 -18.87,3.12 -0.87,1.37 -0.51,7.33 -0.3,8.38 0.21,1.05 14,3.41 16.32,3.51 2.32,0.1 13.5,-2.02 13.5,-2.02 z"
         id="path3" />
      <path
         d="m 233.57,254.47 -0.69,2.38 c 0,0 5.86,4.43 6.08,4.69 0.22,0.26 -0.14,1.52 -0.14,1.52 h 5.94 v -8.59 a 13.94,13.94 0 0 1 -2.78,1.19 c -0.85,0.15 -8.41,-1.19 -8.41,-1.19 z"
         id="path4" />
    </g>
    <path
       d="m 342.47,347.7 c 0.63,23 9.75,51.12 30.09,51.12 2,0 29.22,0.52 31,-0.07 16.39,-5.44 26.1,-35.33 24.26,-61.68 -1.44,-20.52 -8,-43.51 -25.1,-46.27 -1.14,-0.18 -29.78,0 -31,0 -20.55,0 -29.94,32.2 -29.25,56.9 z"
       style="fill:#263238"
       id="path5" />
    <path
       d="m 375.1,347.7 c 0.64,23 9.76,51.12 30.09,51.12 20.33,0 29.64,-32.54 27.59,-61.75 -1.53,-21.89 -8.59,-46.27 -28.45,-46.27 -20.52,0 -29.91,32.2 -29.23,56.9 z"
       style="fill:#37474f"
       id="path6" />
    <path
       d="m 383.57,347 c 0.52,17.68 7.32,39.37 22.35,39.37 15.03,0 21.83,-25.06 20.26,-47.55 C 425,321.96 419.73,303.19 405.05,303.19 389.88,303.22 383,328 383.57,347 Z"
       style="fill:#c7c7c7"
       id="path7" />
    <path
       d="m 409.86,307 c -0.31,7.19 -1.39,30.08 -2.95,30.08 -1.32,0 -5.17,-21.61 -6.53,-29.42 a 11.43,11.43 0 0 1 5.31,-1.31 13.35,13.35 0 0 1 4.17,0.65 z"
       style="fill:#263238"
       id="path8" />
    <path
       d="m 404.09,338.48 c -0.83,0.62 -8.19,-9.7 -13.54,-17.44 a 32.59,32.59 0 0 1 4.82,-9 c 3.47,8.85 9.85,25.6 8.72,26.44 z"
       style="fill:#263238"
       id="path9" />
    <path
       d="m 402.7,341.14 c -0.38,0.94 -8.29,-2.68 -15.42,-6.16 a 70,70 0 0 1 1.61,-8.56 c 6.53,6.05 14.27,13.58 13.81,14.72 z"
       style="fill:#263238"
       id="path10" />
    <path
       d="m 402,344.37 c 0.07,1.08 -7.94,2.6 -15.21,3.76 l -0.06,-1.27 c -0.07,-2.3 0,-4.68 0.13,-7.1 7.24,1.5 15.01,3.4 15.14,4.61 z"
       style="fill:#263238"
       id="path11" />
    <path
       d="m 389,363.11 a 71.17,71.17 0 0 1 -1.84,-9.78 c 7,-3.24 15.12,-6.73 15.73,-5.61 0.61,1.12 -7.79,9.51 -13.89,15.39 z"
       style="fill:#263238"
       id="path12" />
    <path
       d="m 397.66,379.56 a 27.47,27.47 0 0 1 -6.44,-9.86 c 4.48,-7.65 12.15,-20.33 13.34,-19.52 1.19,0.81 -4.95,22.65 -6.9,29.38 z"
       style="fill:#263238"
       id="path13" />
    <path
       d="m 413.35,381 a 11.14,11.14 0 0 1 -6.68,2.24 11.85,11.85 0 0 1 -2.76,-0.31 c 0.24,-6 1.34,-30.91 3,-30.91 1.27,-0.02 5.02,20.83 6.44,28.98 z"
       style="fill:#263238"
       id="path14" />
    <path
       d="m 422,366.46 a 37.56,37.56 0 0 1 -4.07,9.44 c -3.48,-8.91 -9.08,-23.75 -8,-24.55 0.76,-0.57 6.98,7.89 12.07,15.11 z"
       style="fill:#263238"
       id="path15" />
    <path
       d="m 424.42,353.33 a 73.76,73.76 0 0 1 -1.12,7.83 c -5.7,-5.38 -11.56,-11.26 -11.14,-12.3 0.32,-0.86 6.2,1.65 12.26,4.47 z"
       style="fill:#263238"
       id="path16" />
    <path
       d="m 424.7,341.74 c 0.1,2.42 0.11,4.86 0,7.28 -6,-1.27 -11.67,-2.74 -11.74,-3.79 -0.07,-1.05 5.68,-2.3 11.74,-3.49 z"
       style="fill:#263238"
       id="path17" />
    <path
       d="m 424.39,337.13 c -5.85,2.78 -11.71,5.25 -12.22,4.28 -0.51,-0.97 5.56,-7.66 10.93,-13.27 a 81.4,81.4 0 0 1 1.29,8.99 z"
       style="fill:#263238"
       id="path18" />
    <path
       d="m 421.42,321.62 c 0,0 0,0 0,0 -4.33,7.48 -10.41,17.54 -11.47,16.81 -1.06,-0.73 3.71,-19.53 5.82,-27.4 a 29.22,29.22 0 0 1 5.65,10.59 z"
       style="fill:#263238"
       id="path19" />
    <path
       d="m 112.22,347.7 c 0.63,23 9.75,51.12 30.09,51.12 2,0 29.22,0.52 31,-0.07 16.39,-5.44 26.1,-35.33 24.26,-61.68 -1.44,-20.52 -8,-43.51 -25.1,-46.27 -1.14,-0.18 -29.78,0 -31,0 -20.55,0 -29.93,32.2 -29.25,56.9 z"
       style="fill:#263238"
       id="path20" />
    <path
       d="m 144.86,347.7 c 0.63,23 9.75,51.12 30.08,51.12 20.33,0 29.64,-32.54 27.6,-61.75 -1.54,-21.89 -8.6,-46.27 -28.45,-46.27 -20.53,0 -29.92,32.2 -29.23,56.9 z"
       style="fill:#37474f"
       id="path21" />
    <path
       d="m 153.32,347 c 0.52,17.68 7.32,39.37 22.35,39.37 15.03,0 21.83,-25.06 20.26,-47.55 -1.18,-16.86 -6.45,-35.63 -21.13,-35.63 -15.17,0.03 -22.04,24.81 -21.48,43.81 z"
       style="fill:#c7c7c7"
       id="path22" />
    <path
       d="m 179.61,307 c -0.31,7.19 -1.39,30.08 -3,30.08 -1.32,0 -5.17,-21.61 -6.53,-29.42 a 11.43,11.43 0 0 1 5.31,-1.31 13.3,13.3 0 0 1 4.22,0.65 z"
       style="fill:#263238"
       id="path23" />
    <path
       d="m 173.84,338.48 c -0.83,0.62 -8.19,-9.7 -13.54,-17.44 a 32.85,32.85 0 0 1 4.82,-9 c 3.47,8.85 9.88,25.6 8.72,26.44 z"
       style="fill:#263238"
       id="path24" />
    <path
       d="m 172.45,341.14 c -0.38,0.94 -8.29,-2.68 -15.42,-6.16 a 70,70 0 0 1 1.61,-8.56 c 6.53,6.05 14.27,13.58 13.81,14.72 z"
       style="fill:#263238"
       id="path25" />
    <path
       d="m 171.71,344.37 c 0.07,1.08 -7.94,2.6 -15.21,3.76 0,-0.43 0,-0.84 -0.05,-1.27 -0.08,-2.3 0,-4.68 0.12,-7.1 7.28,1.5 15.05,3.4 15.14,4.61 z"
       style="fill:#263238"
       id="path26" />
    <path
       d="m 158.76,363.11 a 71.17,71.17 0 0 1 -1.84,-9.78 c 7,-3.24 15.12,-6.73 15.73,-5.61 0.61,1.12 -7.8,9.51 -13.89,15.39 z"
       style="fill:#263238"
       id="path27" />
    <path
       d="M 167.41,379.56 A 27.47,27.47 0 0 1 161,369.7 c 4.48,-7.65 12.15,-20.33 13.34,-19.52 1.19,0.81 -4.98,22.65 -6.93,29.38 z"
       style="fill:#263238"
       id="path28" />
    <path
       d="m 183.1,381 a 11.14,11.14 0 0 1 -6.68,2.24 11.85,11.85 0 0 1 -2.76,-0.31 c 0.24,-6 1.34,-30.91 3,-30.91 1.27,-0.02 5.02,20.83 6.44,28.98 z"
       style="fill:#263238"
       id="path29" />
    <path
       d="m 191.76,366.46 a 37.56,37.56 0 0 1 -4.07,9.44 c -3.48,-8.91 -9.08,-23.75 -8,-24.55 0.75,-0.57 6.97,7.89 12.07,15.11 z"
       style="fill:#263238"
       id="path30" />
    <path
       d="m 194.17,353.33 a 73.76,73.76 0 0 1 -1.12,7.83 c -5.7,-5.38 -11.55,-11.26 -11.14,-12.3 0.32,-0.86 6.2,1.65 12.26,4.47 z"
       style="fill:#263238"
       id="path31" />
    <path
       d="m 194.45,341.74 c 0.1,2.42 0.11,4.86 0,7.28 -6,-1.27 -11.67,-2.74 -11.74,-3.79 -0.07,-1.05 5.68,-2.3 11.74,-3.49 z"
       style="fill:#263238"
       id="path32" />
    <path
       d="m 194.14,337.13 c -5.85,2.78 -11.71,5.25 -12.22,4.28 -0.51,-0.97 5.56,-7.66 10.93,-13.27 a 81.4,81.4 0 0 1 1.29,8.99 z"
       style="fill:#263238"
       id="path33" />
    <path
       d="m 191.17,321.62 c 0,0 0,0 0,0 -4.33,7.48 -10.41,17.54 -11.47,16.81 -1.06,-0.73 3.71,-19.53 5.82,-27.4 a 29.22,29.22 0 0 1 5.65,10.59 z"
       style="fill:#263238"
       id="path34" />
    <path
       d="m 551.93,347.7 c 0.63,23 9.75,51.12 30.09,51.12 2,0 29.22,0.52 31,-0.07 16.39,-5.44 26.1,-35.33 24.26,-61.68 -1.44,-20.52 -8,-43.51 -25.1,-46.27 -1.14,-0.18 -29.78,0 -31,0 -20.55,0 -29.93,32.2 -29.25,56.9 z"
       style="fill:#263238"
       id="path35" />
    <path
       d="m 584.57,347.7 c 0.63,23 9.75,51.12 30.08,51.12 20.33,0 29.64,-32.54 27.6,-61.75 -1.54,-21.89 -8.6,-46.27 -28.45,-46.27 -20.53,0 -29.92,32.2 -29.23,56.9 z"
       style="fill:#37474f"
       id="path36" />
    <path
       d="m 593,347 c 0.52,17.68 7.32,39.37 22.35,39.37 15.03,0 21.83,-25.06 20.26,-47.55 -1.18,-16.86 -6.45,-35.63 -21.13,-35.63 C 599.34,303.22 592.47,328 593,347 Z"
       style="fill:#c7c7c7"
       id="path37" />
    <path
       d="m 619.32,307 c -0.31,7.19 -1.39,30.08 -3,30.08 -1.32,0 -5.17,-21.61 -6.53,-29.42 a 11.44,11.44 0 0 1 5.32,-1.31 13.28,13.28 0 0 1 4.21,0.65 z"
       style="fill:#263238"
       id="path38" />
    <path
       d="m 613.55,338.48 c -0.83,0.62 -8.19,-9.7 -13.54,-17.44 a 33.12,33.12 0 0 1 4.82,-9 c 3.47,8.85 9.85,25.6 8.72,26.44 z"
       style="fill:#263238"
       id="path39" />
    <path
       d="m 612.16,341.14 c -0.37,0.94 -8.29,-2.68 -15.42,-6.16 a 70,70 0 0 1 1.61,-8.56 c 6.53,6.05 14.27,13.58 13.81,14.72 z"
       style="fill:#263238"
       id="path40" />
    <path
       d="m 611.42,344.37 c 0.07,1.08 -7.94,2.6 -15.21,3.76 0,-0.43 0,-0.84 -0.05,-1.27 -0.08,-2.3 0,-4.68 0.12,-7.1 7.28,1.5 15.05,3.4 15.14,4.61 z"
       style="fill:#263238"
       id="path41" />
    <path
       d="m 598.47,363.11 a 71.17,71.17 0 0 1 -1.84,-9.78 c 7,-3.24 15.12,-6.73 15.73,-5.61 0.61,1.12 -7.8,9.51 -13.89,15.39 z"
       style="fill:#263238"
       id="path42" />
    <path
       d="m 607.12,379.56 a 27.47,27.47 0 0 1 -6.44,-9.86 c 4.48,-7.65 12.15,-20.33 13.34,-19.52 1.19,0.81 -4.95,22.65 -6.9,29.38 z"
       style="fill:#263238"
       id="path43" />
    <path
       d="m 622.81,381 a 11.14,11.14 0 0 1 -6.68,2.24 11.85,11.85 0 0 1 -2.76,-0.31 c 0.24,-6 1.34,-30.91 3,-30.91 1.27,-0.02 5.02,20.83 6.44,28.98 z"
       style="fill:#263238"
       id="path44" />
    <path
       d="m 631.47,366.46 a 37.56,37.56 0 0 1 -4.07,9.44 c -3.48,-8.91 -9.08,-23.75 -8,-24.55 0.76,-0.57 6.97,7.89 12.07,15.11 z"
       style="fill:#263238"
       id="path45" />
    <path
       d="m 633.88,353.33 a 71.27,71.27 0 0 1 -1.12,7.83 c -5.7,-5.38 -11.55,-11.26 -11.14,-12.3 0.32,-0.86 6.2,1.65 12.26,4.47 z"
       style="fill:#263238"
       id="path46" />
    <path
       d="m 634.16,341.74 c 0.1,2.42 0.11,4.86 0,7.28 -6,-1.27 -11.67,-2.74 -11.74,-3.79 -0.07,-1.05 5.68,-2.3 11.74,-3.49 z"
       style="fill:#263238"
       id="path47" />
    <path
       d="m 633.85,337.13 c -5.85,2.78 -11.71,5.25 -12.22,4.28 -0.51,-0.97 5.56,-7.66 10.93,-13.27 a 81.4,81.4 0 0 1 1.29,8.99 z"
       style="fill:#263238"
       id="path48" />
    <path
       d="m 630.88,321.62 c 0,0 0,0 0,0 -4.33,7.48 -10.41,17.54 -11.47,16.81 -1.06,-0.73 3.71,-19.53 5.82,-27.4 a 29.22,29.22 0 0 1 5.65,10.59 z"
       style="fill:#263238"
       id="path49" />
    <path
       d="m 433.06,381.91 h 137.11 c 0,0 12.53,-20.4 13.24,-23.63 0.71,-3.23 -2.39,-68.19 31.17,-68.19 29.24,0 27.94,65.22 27.94,65.22 l 3.58,-5.48 0.81,-9.53 -2.28,-5.64 c 0,0 4.29,-40 2.28,-45.51 -2.01,-5.51 -19.87,-28.59 -21.08,-29.8 -1.21,-1.21 -20.94,-4.57 -22.28,-5.77 -1.34,-1.2 -56.55,-46.72 -81.08,-52.09 -24.53,-5.37 -78.18,-9.66 -112.61,-9.66 -34.43,0 -113.19,9.3 -119.63,11.45 -6.44,2.15 -65.51,57.63 -65.51,57.63 0,0 -63,8.1 -71.42,10 -8.42,1.9 -40.54,23.23 -41.88,25.91 -1.34,2.68 -5.51,32.62 -5.51,32.62 0,0 -3.22,7.39 -3.35,9.13 -0.13,1.74 3.89,30.21 4.43,31.68 0.54,1.47 6.44,8.19 7.78,8.73 1.34,0.54 224.92,3.49 227.66,3 2.74,-0.49 15.63,-4.29 17.78,-5.73 2.15,-1.44 6.29,-85.45 44.79,-85.45 33.43,0 30.75,64.13 28.06,91.11 z"
       style="fill:#ff81ae"
       id="path50" />
    <path
       d="m 246,381.06 c -61.74,-0.78 -130.48,-1.81 -131.23,-2.1 -1.34,-0.54 -7.25,-7.25 -7.78,-8.72 -0.53,-1.47 -4.57,-29.94 -4.42,-31.68 0.15,-1.74 3.34,-9.14 3.34,-9.14 0,0 4.16,-29.94 5.5,-32.62 1.34,-2.68 33.43,-24 41.89,-25.9 8.46,-1.9 71.42,-10 71.42,-10 0,0 -57,12.75 -60,15.3 -3,2.55 -25,26.6 -27.56,30.17 -2.56,3.57 -2.94,30.6 -3.75,32.83 -0.81,2.23 -6.18,16.21 -6.72,18.62 -0.54,2.41 1.88,12.09 2.68,12.88 0.8,0.79 111.45,9.94 116.63,10.36 z"
       style="opacity:0.1"
       id="path51" />
    <path
       d="m 433.05,381.91 c 2.46,-24.49 4.88,-79.59 -19.71,-89.54 12.56,2.28 30.1,22.87 30.82,76.66 l 126,12.88 z"
       style="opacity:0.1"
       id="path52" />
    <g
       style="opacity:0.6"
       id="g56">
      <path
         d="m 566.94,347.14 a 152.63,152.63 0 0 1 8.3,-38.12 87.34,87.34 0 0 1 3.86,-9 64.79,64.79 0 0 1 5,-8.47 42.91,42.91 0 0 1 6.45,-7.47 36.21,36.21 0 0 1 3.86,-3.11 30.3,30.3 0 0 1 4.36,-2.4 25.18,25.18 0 0 1 9.65,-2.28 23.42,23.42 0 0 1 9.8,1.48 c 6.28,2.43 11.06,7.54 14.44,13.11 a 72.38,72.38 0 0 1 7.53,18.07 113.93,113.93 0 0 1 3.52,19.21 114.37,114.37 0 0 0 -4.09,-19.05 72.16,72.16 0 0 0 -7.75,-17.74 C 628.42,286 623.8,281 617.8,278.78 a 22.15,22.15 0 0 0 -9.34,-1.36 24.29,24.29 0 0 0 -9.22,2.23 29.84,29.84 0 0 0 -4.19,2.28 36.85,36.85 0 0 0 -3.75,3 42,42 0 0 0 -6.31,7.25 80.63,80.63 0 0 0 -8.89,17.18 141.73,141.73 0 0 0 -5.66,18.64 170.61,170.61 0 0 0 -3.5,19.14 z"
         style="fill:#ffffff"
         id="path53" />
      <path
         d="m 359,347.14 a 153,153 0 0 1 8,-37.29 81.14,81.14 0 0 1 8.38,-17.22 52.56,52.56 0 0 1 6.06,-7.51 35.56,35.56 0 0 1 7.74,-5.81 29.24,29.24 0 0 1 9.26,-2.91 28.58,28.58 0 0 1 9.67,0.56 c 6.37,1.5 11.85,5.59 15.86,10.58 a 61.48,61.48 0 0 1 9.3,16.71 96.08,96.08 0 0 1 4.89,18.44 95.52,95.52 0 0 0 -5.45,-18.22 60.8,60.8 0 0 0 -9.46,-16.34 c -4,-4.78 -9.29,-8.71 -15.4,-10.1 a 27.51,27.51 0 0 0 -9.27,-0.48 28.64,28.64 0 0 0 -8.84,2.82 35.06,35.06 0 0 0 -7.49,5.57 51,51 0 0 0 -5.95,7.3 85.17,85.17 0 0 0 -8.43,16.93 145.71,145.71 0 0 0 -5.46,18.22 167.8,167.8 0 0 0 -3.41,18.75 z"
         style="fill:#ffffff"
         id="path54" />
      <path
         d="m 434.94,299.72 c 8.75,-2.53 17.48,-5.14 26.25,-7.6 v 0 l 49,-4.67 49,-4.35 h -0.06 l 16,-5.54 16.08,-5.45 -16,5.77 -16,5.69 h -0.06 l -49,4.64 -49,4.34 v 0 c -8.61,2.45 -17.42,4.77 -26.21,7.17 z"
         style="fill:#ffffff"
         id="path55" />
      <path
         d="m 231.71,260.94 -26.6,11.35 -26.64,11.27 0.13,-0.11 -10.6,19.91 -0.26,-0.43 c 25.68,0.23 51.37,0.33 77,0.67 h -0.18 l 30.6,-18 v 0 0 l 38.14,-11.35 38.17,-11.22 -37.97,11.66 -38.09,11.49 h 0.07 l -30.48,18.1 -0.09,0.05 h -0.1 c -25.68,-0.15 -51.36,-0.54 -77,-0.81 h -0.49 l 0.23,-0.42 10.7,-19.87 v -0.08 h 0.08 L 205,272 Z"
         style="fill:#ffffff"
         id="path56" />
    </g>
    <g
       style="opacity:0.3"
       id="g66">
      <path
         d="m 229.73,260.91 -53.68,12.76 -6.7,1.64 c -1.11,0.27 -2.21,0.58 -3.32,0.87 l -0.77,0.26 a 2,2 0 0 0 -0.37,0.14 l -0.29,0.25 a 11.79,11.79 0 0 0 -1.15,1.18 c -3,3.44 -5.73,7.15 -8.54,10.78 -5.56,7.33 -11,14.72 -16.51,22.11 5.23,-7.57 10.54,-15.08 16,-22.48 2.74,-3.7 5.48,-7.38 8.5,-10.9 a 10,10 0 0 1 1.25,-1.29 l 0.37,-0.3 a 2.56,2.56 0 0 1 0.43,-0.17 l 0.86,-0.3 c 1.11,-0.3 2.23,-0.63 3.34,-0.9 l 6.7,-1.68 q 13.42,-3.17 26.89,-6.17 13.47,-3 26.99,-5.8 z"
         id="path57" />
      <path
         d="m 402.93,263.06 -16.33,5.15 -16.36,5.06 -32.66,10.27 c -5.45,1.71 -10.9,3.41 -16.29,5.25 a 50.73,50.73 0 0 0 -7.74,3.52 l -7.64,3.87 -15.26,7.75 -15.32,7.64 15.14,-8 15.21,-7.88 7.6,-3.93 a 49.64,49.64 0 0 1 7.79,-3.61 c 5.4,-1.89 10.83,-3.64 16.27,-5.38 l 32.74,-10 16.4,-4.92 z"
         id="path58" />
      <path
         d="m 444.16,364.83 15.76,-0.34 15.77,-0.22 31.52,-0.48 31.53,-0.3 15.76,-0.24 3.94,-0.07 2,-0.07 c 0.31,0 0.68,0 0.94,-0.07 0.26,-0.07 0.5,-0.34 0.74,-0.54 1.74,-1.95 3.29,-4.09 4.85,-6.2 -1.51,2.15 -3,4.32 -4.71,6.33 -0.24,0.21 -0.41,0.56 -0.79,0.62 a 7.64,7.64 0 0 1 -1,0.1 l -2,0.12 -3.94,0.17 -15.76,0.39 -31.53,0.56 -31.53,0.21 -15.76,0.09 z"
         id="path59" />
      <path
         d="m 554.68,259.23 q 2.49,12 4.86,24 v 0.11 l -3.15,19 -3.23,19 q -3.24,19 -6.81,38 c 1.94,-12.72 3.94,-25.43 6.08,-38.12 l 3.21,-19 3.3,-19 v 0.1 q -2.19,-11.99 -4.26,-24.09 z"
         id="path60" />
      <path
         d="m 467.7,260.82 q -3,15.81 -6.11,31.58 v -0.06 q -0.19,17.21 -0.53,34.41 l -0.37,17.25 -0.51,17.2 v -17.21 l 0.15,-17.21 q 0.18,-17.21 0.54,-34.41 v -0.07 q 3.33,-15.78 6.83,-31.48 z"
         id="path61" />
      <path
         d="m 585.59,251.34 c 1.13,3.41 2.15,6.85 3.18,10.29 1.03,3.44 2,6.9 2.88,10.38 v 0.09 0.08 c -0.56,2.54 -1.1,5.07 -1.71,7.59 -0.61,2.52 -1.2,5 -1.87,7.55 0.4,-2.57 0.85,-5.12 1.33,-7.67 0.48,-2.55 1,-5.08 1.5,-7.62 v 0.18 c -1,-3.45 -1.88,-6.93 -2.81,-10.39 -0.93,-3.46 -1.74,-6.97 -2.5,-10.48 z"
         id="path62" />
      <polygon
         points="457.57,321.45 473.85,320.34 506.42,318.12 539,316.17 555.3,315.19 571.6,314.35 555.32,315.59 539.04,316.7 506.47,318.92 473.89,320.88 457.6,321.85 441.29,322.69 "
         id="polygon62" />
      <path
         d="m 534.14,264 c 0.32,1.32 0.58,2.66 0.88,4 l -0.22,-0.17 c 2.54,-0.29 5.09,-0.6 7.64,-0.83 2.55,-0.23 5.09,-0.49 7.65,-0.68 l -0.33,0.45 -0.77,-3.68 0.35,0.25 c -2.82,0.17 -5.65,0.34 -8.48,0.4 2.8,-0.42 5.61,-0.74 8.43,-1.05 h 0.28 l 0.06,0.29 0.85,3.66 0.1,0.41 h -0.43 c -2.55,0.27 -5.1,0.48 -7.65,0.67 -2.55,0.19 -5.11,0.35 -7.67,0.51 h -0.19 v -0.18 c -0.18,-1.34 -0.36,-2.69 -0.5,-4.05 z"
         id="path63" />
      <path
         d="m 120,318.52 c -1,5.29 -2.26,10.51 -3.49,15.73 l -0.5,2 -0.12,0.48 -0.06,0.24 c 0,0.12 0,0 -0.1,0 0,0.29 0.05,0.67 0.07,1 0.1,1.36 0.24,2.71 0.31,4.08 0.18,2.73 0.34,5.46 0.4,8.15 -0.4,-2.66 -0.7,-5.29 -1,-7.91 -0.15,-1.3 -0.25,-2.63 -0.37,-3.94 l -0.09,-1 a 1.24,1.24 0 0 1 0,-0.52 l 0.06,-0.24 0.11,-0.5 0.46,-2 c 1.38,-5.23 2.71,-10.44 4.32,-15.57 z"
         id="path64" />
      <path
         d="m 320.3,318.52 c 1.08,2.67 2,5.37 3,8.07 1,2.7 1.88,5.43 2.72,8.17 v 0.07 0.05 c 0,2.05 0,4.09 -0.11,6.13 -0.11,2.04 -0.14,4.09 -0.27,6.13 -0.14,-2 -0.22,-4.08 -0.28,-6.13 -0.06,-2.05 -0.08,-4.08 -0.1,-6.13 V 335 c -0.95,-2.71 -1.77,-5.46 -2.65,-8.19 -0.88,-2.73 -1.61,-5.5 -2.31,-8.29 z"
         id="path65" />
      <path
         d="m 102.63,339.76 15.17,15.08 h -0.08 l 54.28,1.77 c 9,0.29 18.08,0.67 27.12,0.89 l 27.14,-0.06 108.57,0.26 v 0 l 22.05,-5.34 -22,5.61 v 0 l -108.58,0.26 -27.14,-0.05 c -9.05,-0.26 -18.09,-0.67 -27.13,-1 l -54.24,-2.13 h -0.06 v 0 z"
         id="path66" />
    </g>
    <path
       d="m 481.57,258.77 c 1.79,1.83 72.49,-2.33 74.1,-2.51 1.61,-0.18 28.64,-5.37 29.89,-6.62 1.25,-1.25 -43,-33.11 -46.72,-34.73 -3.72,-1.62 -44.7,-4.29 -50.34,-2 -4.41,1.78 -8.99,43.75 -6.93,45.86 z"
       style="fill:#263238"
       id="path67" />
    <path
       d="m 486.16,256.83 c 1.64,1.67 66.23,-2.13 67.7,-2.29 1.47,-0.16 26.17,-4.91 27.31,-6 1.14,-1.09 -39.24,-30.26 -42.68,-31.73 -3.44,-1.47 -40.84,-3.93 -46,-1.84 -4.02,1.58 -8.21,39.93 -6.33,41.86 z"
       style="fill:#37474f"
       id="path68" />
    <g
       style="opacity:0.1"
       id="g71">
      <path
         d="m 531,215.61 -44.76,27.52 c 0.77,-8.08 2.21,-17.79 3.84,-23.47 l 8.94,-5.49 a 292.78,292.78 0 0 1 31.98,1.44 z"
         style="fill:#ffffff"
         id="path69" />
      <path
         d="m 566.06,236.08 -31.85,19.59 c -5.82,0.31 -12.32,0.63 -18.62,0.9 l 42.65,-26.23 c 2.63,1.9 5.29,3.85 7.82,5.74 z"
         style="fill:#ffffff"
         id="path70" />
      <path
         d="m 579.15,246.28 -7.82,4.81 c -1.87,0.41 -3.84,0.82 -5.77,1.22 l 12,-7.37 c 0.59,0.49 1.13,0.94 1.59,1.34 z"
         style="fill:#ffffff"
         id="path71" />
    </g>
    <path
       d="m 535.44,216.13 c 1.26,0.2 15.88,37.93 15.6,38.67 -0.28,0.74 2.89,0.13 2.62,-0.06 -0.27,-0.19 -16,-36.58 -15.54,-38.11 0.24,-0.81 -2.68,-0.5 -2.68,-0.5 z"
       style="fill:#263238"
       id="path72" />
    <path
       d="m 229.73,260.91 c 1.79,0 168.83,2.15 173.2,2.15 4.37,0 64.63,-2.91 65.37,-3.31 0.74,-0.4 6.64,-44.16 4.85,-47.73 -0.49,-1 -81.44,-5.16 -91.37,-5.16 -9.93,0 -91.37,3.55 -95.67,4.3 -4.3,0.75 -59.34,49.71 -56.38,49.75 z"
       style="fill:#263238"
       id="path73" />
    <path
       d="m 234.93,258.8 c 1.68,0 158.65,2 162.75,2 4.1,0 62.41,-2.73 63.1,-3.11 0.69,-0.38 4.63,-39.08 2.94,-42.43 -0.46,-0.92 -78.2,-4.85 -87.53,-4.85 -9.33,0 -85.86,3.33 -89.9,4 -4.04,0.67 -54.14,44.36 -51.36,44.39 z"
       style="fill:#37474f"
       id="path74" />
    <path
       d="m 353.67,211.15 -78.31,48.16 c -14.44,-0.17 -26.54,-0.33 -33.64,-0.42 l 75,-46.14 c 12.09,-0.56 25.7,-1.15 36.95,-1.6 z m 50.53,0.39 -78.72,48.46 16.82,0.21 77.76,-47.82 z m 31,47.64 c 7.22,-0.35 14,-0.7 18.76,-1 l 7.54,-4.64 c 0.36,-2.84 0.81,-6.89 1.22,-11.3 z m 8.58,-45.51 -76.1,46.8 h 3.71 l 75.83,-46.63 z m -143.06,-0.14 v 0 l -53.41,32.84 c -2.93,2.64 -5.55,5 -7.62,7 l 65.17,-40.07 z"
       style="opacity:0.1;fill:#ffffff"
       id="path75" />
    <path
       d="m 295.78,304.59 c -2.34,2.33 1.79,16.82 5.37,17.9 3.58,1.08 28.1,-2.33 30.78,-3.05 2.68,-0.72 30.25,-8.95 32.58,-11.45 2.33,-2.5 4.47,-23.09 2,-24.52 -2.47,-1.43 -43.86,9.3 -48.33,10.56 -4.47,1.26 -20.43,8.59 -22.4,10.56 z"
       style="fill:#ffffff"
       id="path76" />
    <path
       d="m 109.4,312 c 1,1.86 7.66,8.77 9,9.72 1.34,0.95 9.4,2.3 10.34,1.77 0.94,-0.53 6,-11.68 5.9,-13.56 -0.1,-1.88 -10.73,-22.26 -12.64,-21.85 -1.91,0.41 -12.08,6.71 -12.62,8.72 -0.54,2.01 -1.01,13.2 0.02,15.2 z"
       style="fill:#ffffff"
       id="path77" />
    <path
       d="m 110,311.37 c -0.1,1.34 3.46,5.49 3.89,6 a 37.73,37.73 0 0 1 -4.49,-5.36 c -1,-2 -0.55,-13.21 0,-15.21 0.55,-2 10.74,-8.33 12.61,-8.74 -2,0.91 -10.17,7.56 -10.61,9.21 -0.44,1.65 -1.29,12.67 -1.4,14.1 z"
       style="fill:#dbdbdb"
       id="path78" />
    <path
       d="m 138.4,310.9 c 2.36,-0.82 50.88,-2.28 60.41,-2.28 9.53,0 72.22,1.47 76.52,2.95 4.3,1.48 -5.37,27 -9.13,28.86 -3.76,1.86 -64.17,6.71 -68.33,6.71 -4.16,0 -51.32,-6.66 -54.14,-8.54 -2.82,-1.88 -9.22,-26.36 -5.33,-27.7 z"
       style="fill:#263238"
       id="path79" />
    <path
       d="m 273.28,327.28 c -0.2,0.52 -0.39,1 -0.6,1.55 L 139,326.41 c -0.14,-0.52 -0.25,-1.05 -0.37,-1.59 z"
       style="fill:#ff81ae"
       id="path80" />
    <path
       d="m 144.84,369 h 126.33 c 2.68,0 -11,-8.18 -13.17,-8.32 -2.17,-0.14 -101.21,0 -103.22,0 -2.01,0 -12.22,8.32 -9.94,8.32 z"
       style="fill:#263238"
       id="path81" />
    <path
       d="m 112.85,363.61 c 1.36,0.23 15.39,0.5 17.72,0 2.33,-0.5 7.7,-12.76 7.34,-14.59 -0.36,-1.83 -10.79,-8 -12.13,-8.46 -1.34,-0.46 -10.8,-0.94 -11.81,0 -1.01,0.94 -2.38,22.85 -1.12,23.05 z"
       style="fill:#455a64"
       id="path82" />
    <path
       d="m 294.52,347.14 c -1.67,2.17 9.85,15.26 14.23,16.87 4.38,1.61 31.25,1.66 32.25,1.39 1,-0.27 1,-13.74 0.49,-15.8 -0.51,-2.06 -5.55,-9.57 -6.66,-10.24 -1.11,-0.67 -25.2,1.38 -28.46,2.23 -3.26,0.85 -11.09,4.57 -11.85,5.55 z"
       style="fill:#455a64"
       id="path83" />
    <path
       d="m 492.29,254.61 -0.7,-2.38 c 0,0 8.82,-9.45 11.34,-10.61 2.52,-1.16 18,1.75 18.88,3.12 0.88,1.37 0.51,7.33 0.3,8.38 -0.21,1.05 -14,3.41 -16.33,3.51 -2.33,0.1 -13.49,-2.02 -13.49,-2.02 z"
       style="fill:#ff81ae"
       id="path84" />
    <path
       d="m 491.59,252.23 0.7,2.38 c 0,0 -5.87,4.43 -6.08,4.69 -0.21,0.26 0.14,1.52 0.14,1.52 h -6 v -8.59 a 14.22,14.22 0 0 0 2.78,1.19 c 0.87,0.15 8.46,-1.19 8.46,-1.19 z"
       style="fill:#ff81ae"
       id="path85" />
  </g>
</svg>
